<svg xmlns="http://www.w3.org/2000/svg">
  <symbol id="terminal" viewBox="0 0 24 24"><g fill="none" stroke="currentColor" stroke-width="1.7" stroke-linecap="round" stroke-linejoin="round"><rect x="2.5" y="4" width="19" height="16" rx="3"/><path d="m7 9 3 3-3 3m6 0h4"/></g></symbol>
  <symbol id="files" viewBox="0 0 24 24"><g fill="none" stroke="currentColor" stroke-width="1.7" stroke-linecap="round" stroke-linejoin="round"><path d="M3 8V6a2 2 0 0 1 2-2h5l2 3h7a2 2 0 0 1 2 2v9a2 2 0 0 1-2 2H5a2 2 0 0 1-2-2z"/><path d="M3 9h18"/></g></symbol>
  <symbol id="packages" viewBox="0 0 24 24"><g fill="none" stroke="currentColor" stroke-width="1.7" stroke-linecap="round" stroke-linejoin="round"><path d="m12 2.7 8.5 4.8v9L12 21.3l-8.5-4.8v-9zm0 9.5v9.1m-8.5-14L12 12l8.5-4.7M8 5l8.5 4.8v4"/></g></symbol>
  <symbol id="settings" viewBox="0 0 24 24"><g fill="none" stroke="currentColor" stroke-width="1.7" stroke-linecap="round" stroke-linejoin="round"><path d="m9.5 3-.7 2.1-2 .9-2-.4-2 3.4 1.4 1.6v2.7l-1.4 1.6 2 3.5 2-.4 2 .9.7 2.1h4.1l.7-2.1 2-.9 2 .4 2-3.5-1.4-1.6v-2.7L20.3 9l-2-3.4-2 .4-2-.9-.7-2.1z"/><circle cx="11.5" cy="12" r="3.2"/></g></symbol>
  <symbol id="editor" viewBox="0 0 24 24"><g fill="none" stroke="currentColor" stroke-width="1.7" stroke-linecap="round" stroke-linejoin="round"><path d="M13 3H6a2 2 0 0 0-2 2v14a2 2 0 0 0 2 2h12a2 2 0 0 0 2-2v-8M8 8h4m-4 4h2m-2 4h4m2-7 5-5a1.8 1.8 0 0 1 2.5 2.5l-5 5-3.2.8z"/></g></symbol>
  <symbol id="paint" viewBox="0 0 24 24"><g fill="none" stroke="currentColor" stroke-width="1.7" stroke-linecap="round" stroke-linejoin="round"><path d="M13 3a9 9 0 0 0-1 18h1.6a2.4 2.4 0 0 0 1.8-4c-.9-1-.3-2.6 1-2.6h1.5A4.2 4.2 0 0 0 22 10.2C22 6.2 17.7 3 13 3z"/><circle cx="7" cy="11" r=".7"/><circle cx="10" cy="7" r=".7"/><circle cx="15" cy="7" r=".7"/><circle cx="18" cy="10" r=".7"/></g></symbol>
  <symbol id="games" viewBox="0 0 24 24"><g fill="none" stroke="currentColor" stroke-width="1.7" stroke-linecap="round" stroke-linejoin="round"><path d="M7 6h10c2 0 3 1 3.5 3l1 7.5c.4 3-1.9 4-3.8 1.9L15.5 16h-7l-2.2 2.4c-1.9 2.1-4.2 1.1-3.8-1.9l1-7.5C4 7 5 6 7 6zM6 11h5m-2.5-2.5v5"/><circle cx="16" cy="10.5" r=".6"/><circle cx="18" cy="13" r=".6"/></g></symbol>
  <symbol id="monitor" viewBox="0 0 24 24"><g fill="none" stroke="currentColor" stroke-width="1.7" stroke-linecap="round" stroke-linejoin="round"><rect x="2" y="3" width="20" height="14" rx="2.5"/><path d="M8 21h8m-4-4v4M5 11h3l2-4 4 7 2-4h3"/></g></symbol>
  <symbol id="browser" viewBox="0 0 24 24"><g fill="none" stroke="currentColor" stroke-width="1.7" stroke-linecap="round" stroke-linejoin="round"><circle cx="12" cy="12" r="9"/><ellipse cx="12" cy="12" rx="4" ry="9"/><path d="M3 12h18M5 6.5c4 2 10 2 14 0M5 17.5c4-2 10-2 14 0"/></g></symbol>
  <symbol id="image" viewBox="0 0 24 24"><g fill="none" stroke="currentColor" stroke-width="1.7" stroke-linecap="round" stroke-linejoin="round"><rect x="3" y="3" width="18" height="18" rx="3"/><path d="m3 17 5-5 4 4 3-3 6 5"/><circle cx="15.5" cy="8.5" r="1.5"/></g></symbol>
  <symbol id="clock" viewBox="0 0 24 24"><g fill="none" stroke="currentColor" stroke-width="1.7" stroke-linecap="round" stroke-linejoin="round"><circle cx="12" cy="12" r="9"/><path d="M12 6v6l4 2"/></g></symbol>
  <symbol id="help" viewBox="0 0 24 24"><g fill="none" stroke="currentColor" stroke-width="1.7" stroke-linecap="round" stroke-linejoin="round"><circle cx="12" cy="12" r="9"/><path d="M9.5 8.5A2.5 2.5 0 0 1 12 6c3 0 4 3 1.5 5l-1.5 1v1.5"/><path d="M12 17h.01" stroke-width="2.7"/></g></symbol>
  <symbol id="power" viewBox="0 0 24 24"><g fill="none" stroke="currentColor" stroke-width="1.7" stroke-linecap="round" stroke-linejoin="round"><path d="M12 2v10M6.2 5.5a9 9 0 1 0 11.6 0"/></g></symbol>
  <symbol id="search" viewBox="0 0 24 24"><g fill="none" stroke="currentColor" stroke-width="1.7" stroke-linecap="round"><circle cx="10.5" cy="10.5" r="6.5"/><path d="m16 16 5 5"/></g></symbol>
  <symbol id="volume" viewBox="0 0 24 24"><g fill="none" stroke="currentColor" stroke-width="1.7" stroke-linecap="round" stroke-linejoin="round"><path d="M3 9h4l5-4v14l-5-4H3zM16 8a6 6 0 0 1 0 8m3-11a10 10 0 0 1 0 14"/></g></symbol>
  <symbol id="wifi" viewBox="0 0 24 24"><g fill="none" stroke="currentColor" stroke-width="1.7" stroke-linecap="round"><path d="M2 8a16 16 0 0 1 20 0M5.5 12a10.7 10.7 0 0 1 13 0M9 16a5 5 0 0 1 6 0"/><circle cx="12" cy="19.5" r=".8" fill="currentColor" stroke="none"/></g></symbol>
  <symbol id="fullscreen" viewBox="0 0 24 24"><path d="M8 3H3v5m13-5h5v5M3 16v5h5m8 0h5v-5" fill="none" stroke="currentColor" stroke-width="1.7" stroke-linecap="round" stroke-linejoin="round"/></symbol>
  <symbol id="close" viewBox="0 0 24 24"><path d="m7 7 10 10M17 7 7 17" fill="none" stroke="currentColor" stroke-width="1.7" stroke-linecap="round"/></symbol>
  <symbol id="minimize" viewBox="0 0 24 24"><path d="M6 16h12" fill="none" stroke="currentColor" stroke-width="1.7" stroke-linecap="round"/></symbol>
  <symbol id="maximize" viewBox="0 0 24 24"><rect x="6" y="6" width="12" height="12" rx="1.5" fill="none" stroke="currentColor" stroke-width="1.7"/></symbol>
  <symbol id="chevron" viewBox="0 0 24 24"><path d="m9 6 6 6-6 6" fill="none" stroke="currentColor" stroke-width="1.7" stroke-linecap="round" stroke-linejoin="round"/></symbol>
  <symbol id="arrow-right" viewBox="0 0 24 24"><path d="M4 12h16m-6-6 6 6-6 6" fill="none" stroke="currentColor" stroke-width="1.7" stroke-linecap="round" stroke-linejoin="round"/></symbol>
  <symbol id="check" viewBox="0 0 24 24"><path d="m5 12 4 4L19 6" fill="none" stroke="currentColor" stroke-width="1.9" stroke-linecap="round" stroke-linejoin="round"/></symbol>
  <symbol id="linux" viewBox="0 0 24 24"><g fill="none" stroke="currentColor" stroke-width="1.6" stroke-linecap="round" stroke-linejoin="round"><path d="M5 17c0-3 1-5 2-7V7a5 5 0 0 1 10 0v3c1 2 2 4 2 7l-2-1c0 3-2 5-5 5s-5-2-5-5zM9 7h.01M15 7h.01m-5 8q2 3 4 0m-3-5 1 1 1-1"/></g></symbol>
</svg>
